<svg xmlns="http://www.w3.org/2000/svg" version="1.1" xmlns:xlink="http://www.w3.org/1999/xlink" xmlns:svgjs="http://svgjs.dev/svgjs" viewBox="0 0 1920 1080"><rect width="1920" height="1080" fill="#962222"></rect><g transform="matrix(0.9959292143521045,0.5749999999999998,-0.5749999999999998,0.9959292143521045,314.2406399998997,-526.1685791101218)"><path d="M0,-1080C-13.502740263445766,-1002.4196123749779,-92.778216673498,-775.3133349950092,-81.0164415806746,-614.5176742498675C-69.2546664878512,-453.72201350472574,65.91552743445992,-255.5360537755243,70.57065055694036,-115.22603552914939C75.22577367942081,25.083982717225524,-34.74409623185798,93.3812815777747,-53.08570284579191,227.34243522838202C-71.42730945972583,361.30358887898933,-55.13491165550184,505.3263159098068,-39.478989126663215,688.5408863744946C-23.823066597824592,871.7554568391823,27.576213518197612,1149.5725043537743,40.84983232723985,1326.6298580165085C54.12345113628209,1503.6872116792426,46.97102911546353,1611.989984686984,40.16272372759022,1750.8850083508992C33.35441833971691,1889.7800320148144,6.693787287931703,2091.814168058483,0,2160L 1920 2160 L 1920 -1080 Z" fill="url(&quot;#SvgjsLinearGradient1094&quot;)"></path><path d="M384,-1080C397.8202115063638,-999.4904569000635,465.22698503156323,-763.6650072482906,466.9212690381828,-596.9427414003806C468.61555304480237,-430.2204755524705,414.54728608086236,-272.9965932268621,394.16570403971747,-79.66640491253969C373.7841219985726,113.66378340178272,353.5263424613488,367.90440343785576,344.6317767913136,563.038388485554C335.7372111212784,758.1723735332523,339.160407441739,927.8137545050788,340.79831001950623,1091.1375053736501C342.4362125972735,1254.4612562422215,347.25891059450146,1364.8371445925904,354.4591922579171,1542.980893696982C361.65947392133273,1721.1246428013737,379.0765320429862,2057.1634822828305,384,2160L 1920 2160 L 1920 -1080 Z" fill="url(&quot;#SvgjsLinearGradient1095&quot;)"></path><path d="M768,-1080C760.1568319558052,-959.9295554420281,722.8975968635315,-584.1096024480144,720.9409917348307,-359.5773326521685C718.98438660613,-135.04506285632263,752.5440156024788,69.7033817276168,756.2603692277953,267.193618775075C759.9767228531118,464.68385582253313,746.4594761490196,604.0350614196021,743.2391134867299,825.3640896325805C740.0187508244403,1046.6931178455588,732.8113788351792,1372.7284696583756,736.9381932540575,1595.1677880529455C741.0650076729358,1817.6071064475154,762.8230322090096,2065.861298008824,768,2160L 1920 2160 L 1920 -1080 Z" fill="url(&quot;#SvgjsLinearGradient1096&quot;)"></path><path d="M1152,-1080C1150.6100774278289,-959.8824547742331,1141.9508159480674,-636.0044361844548,1143.6604645669731,-359.2947286453988C1145.3701131858788,-82.58502110634277,1151.4930341115887,281.12953791519755,1162.257891713434,580.2582452343361C1173.0227493152793,879.3869525534747,1209.95925879695,1172.1872228084885,1208.2496101780443,1435.4775152694324C1206.5399615591386,1698.7678077303763,1161.3749350296741,2039.2462525449055,1152,2160L 1920 2160 L 1920 -1080 Z" fill="url(&quot;#SvgjsLinearGradient1097&quot;)"></path><path d="M1536,-1080C1550.504093939603,-974.4637546752131,1629.2393091383597,-665.9706979824354,1623.024563637618,-446.7825280512786C1616.8098181368764,-227.59435812012183,1525.3495878231774,20.488543876031173,1498.711526995551,235.12901958694061C1472.0734661679244,449.7694952978501,1449.9893866118186,620.517054498822,1463.196198671859,841.0603262141781C1476.4030107318995,1061.603597929534,1565.8184324677693,1338.5653709147734,1577.9523993557927,1558.388649879077C1590.0863662438162,1778.2119288433807,1542.9920665592988,2059.731441646513,1536,2160L 1920 2160 L 1920 -1080 Z" fill="url(&quot;#SvgjsLinearGradient1098&quot;)"></path></g><defs><linearGradient x1="0.1" y1="0" x2="0" y2="1" id="SvgjsLinearGradient1094"><stop stop-color="#962222" offset="0"></stop><stop stop-color="#962235" offset="0"></stop></linearGradient><linearGradient x1="0.1" y1="0" x2="0" y2="1" id="SvgjsLinearGradient1095"><stop stop-color="#d13232" offset="0"></stop><stop stop-color="#d1324c" offset="0.2"></stop></linearGradient><linearGradient x1="0.1" y1="0" x2="0" y2="1" id="SvgjsLinearGradient1096"><stop stop-color="#de6f6f" offset="0"></stop><stop stop-color="#de6f81" offset="0.4"></stop></linearGradient><linearGradient x1="0.1" y1="0" x2="0" y2="1" id="SvgjsLinearGradient1097"><stop stop-color="#ecabab" offset="0"></stop><stop stop-color="#ecabb6" offset="0.6"></stop></linearGradient><linearGradient x1="0.1" y1="0" x2="0" y2="1" id="SvgjsLinearGradient1098"><stop stop-color="#fae8e8" offset="0"></stop><stop stop-color="#fae8eb" offset="0.8"></stop></linearGradient></defs></svg>